<svg xmlns="http://www.w3.org/2000/svg" xmlns:xlink="http://www.w3.org/1999/xlink" width="500" zoomAndPan="magnify" viewBox="0 0 375 374.999991" height="500" preserveAspectRatio="xMidYMid meet" version="1.0"><defs><g/><clipPath id="ed272916ac"><path d="M 44.113281 62 L 193.363281 62 L 193.363281 222.792969 L 44.113281 222.792969 Z M 44.113281 62 " clip-rule="nonzero"/></clipPath><clipPath id="c38e3a7932"><path d="M 54 71 L 203.191406 71 L 203.191406 231.34375 L 54 231.34375 Z M 54 71 " clip-rule="nonzero"/></clipPath><clipPath id="a3039aedef"><path d="M 130.3125 130 L 253 130 L 253 244 L 130.3125 244 Z M 130.3125 130 " clip-rule="nonzero"/></clipPath></defs><path fill="#63b389" d="M 343.425781 229.007812 L 337.367188 248.078125 C 321.320312 285.574219 294.273438 312.160156 256.222656 327.835938 C 217.953125 343.4375 177.21875 343.726562 134.019531 328.703125 C 93.257812 312.402344 63.808594 286.207031 45.671875 250.121094 C 39.878906 238.472656 35.726562 226.296875 33.214844 213.59375 L 30.816406 194.359375 C 30.085938 181.347656 31.28125 168.234375 34.398438 155.019531 C 45.203125 114.773438 68.359375 84.675781 103.867188 64.730469 C 139.375 44.789062 179.136719 39.542969 223.152344 49.003906 C 266.679688 60.503906 299.753906 83.1875 322.378906 117.046875 C 345.003906 150.910156 352.019531 188.230469 343.425781 229.007812 " fill-opacity="1" fill-rule="nonzero"/><g clip-path="url(#ed272916ac)"><path fill="#d6cfce" d="M 319.609375 224.621094 L 314.292969 241.367188 C 300.203125 274.292969 276.449219 297.640625 243.039062 311.402344 C 209.429688 325.105469 173.660156 325.359375 135.722656 312.164062 C 99.929688 297.851562 74.070312 274.847656 58.144531 243.160156 C 53.058594 232.933594 49.414062 222.242188 47.207031 211.085938 L 45.101562 194.195312 C 44.457031 182.765625 45.507812 171.25 48.246094 159.648438 C 57.734375 124.304688 78.066406 97.875 109.246094 80.363281 C 140.425781 62.851562 175.34375 58.246094 213.996094 66.550781 C 252.21875 76.652344 281.265625 96.570312 301.132812 126.304688 C 321 156.039062 327.160156 188.8125 319.609375 224.621094 " fill-opacity="1" fill-rule="nonzero"/></g><g clip-path="url(#c38e3a7932)"><path fill="#63b389" d="M 329.441406 233.171875 L 324.121094 249.914062 C 310.03125 282.84375 286.28125 306.1875 252.867188 319.953125 C 219.261719 333.65625 183.488281 333.90625 145.554688 320.714844 C 109.761719 306.398438 83.902344 283.398438 67.972656 251.710938 C 62.886719 241.480469 59.242188 230.789062 57.035156 219.636719 L 54.929688 202.746094 C 54.289062 191.316406 55.335938 179.800781 58.074219 168.199219 C 67.5625 132.855469 87.898438 106.425781 119.078125 88.914062 C 150.257812 71.398438 185.171875 66.796875 223.824219 75.101562 C 262.046875 85.199219 291.09375 105.117188 310.960938 134.855469 C 330.828125 164.589844 336.988281 197.359375 329.441406 233.171875 " fill-opacity="1" fill-rule="nonzero"/></g><g clip-path="url(#a3039aedef)"><path fill="#d6cfce" d="M 250.707031 201.316406 L 248.382812 208.632812 C 242.226562 223.023438 231.847656 233.226562 217.246094 239.242188 C 202.558594 245.230469 186.925781 245.339844 170.347656 239.574219 C 154.707031 233.320312 143.40625 223.265625 136.445312 209.417969 C 134.222656 204.949219 132.628906 200.277344 131.664062 195.402344 L 130.746094 188.019531 C 130.464844 183.027344 130.921875 177.992188 132.121094 172.921875 C 136.265625 157.476562 145.152344 145.929688 158.777344 138.273438 C 172.402344 130.621094 187.664062 128.609375 204.554688 132.238281 C 221.257812 136.652344 233.949219 145.355469 242.632812 158.351562 C 251.316406 171.347656 254.007812 185.667969 250.707031 201.316406 " fill-opacity="1" fill-rule="nonzero"/></g><g fill="#1e1e1e" fill-opacity="1"><g transform="translate(61.398226, 183.293138)"><g><path d="M 50.953125 -104.359375 L 78.765625 -102.15625 L 75.765625 -0.125 L 48.21875 -1.421875 L 49.265625 -40.15625 L 31.1875 -40.8125 L 29.765625 -2.203125 L 2.59375 -0.515625 L 3.375 -104.109375 L 33.53125 -104.109375 L 32.109375 -65.25 L 49.90625 -64.59375 Z M 50.953125 -104.359375 "/></g></g></g><g fill="#1e1e1e" fill-opacity="1"><g transform="translate(39.485957, 281.625767)"><g><path d="M 97.09375 -86.703125 L 103.859375 -80.390625 L 103.109375 -6.78125 L 97.25 -0.15625 L 76.921875 -0.75 L 75.109375 -53.140625 L 67.890625 -54.5 L 63.53125 -6.171875 L 42.90625 -9.484375 L 40.9375 -53.4375 L 34.328125 -52.984375 L 30.859375 -0.15625 L 3.015625 -0.453125 L 4.359375 -87.90625 L 23.03125 -87.765625 L 25.59375 -82.796875 L 30.25 -86.859375 L 48.921875 -86.859375 L 54.046875 -78.875 L 60.96875 -86.5625 Z M 97.09375 -86.703125 "/></g></g></g><g fill="#1e1e1e" fill-opacity="1"><g transform="translate(142.770331, 186.330771)"><g><path d="M 53.328125 -57.84375 L 58.546875 -51.328125 L 58.046875 -7.515625 L 54.140625 -0.40625 L 9.21875 -0.09375 L 2.5 -3.609375 L 2 -52.03125 L 6.015625 -58.75 Z M 37.296875 -42 L 23.265625 -42.609375 L 23.65625 -16.046875 L 37 -14.9375 Z M 37.296875 -42 "/></g></g></g><g fill="#1e1e1e" fill-opacity="1"><g transform="translate(148.99356, 290.716783)"><g><path d="M 64.25 -95.71875 L 69.875 -89.609375 L 69.03125 -8.734375 L 64.609375 -0.234375 L 10.890625 0.125 L 2.984375 -4.546875 L 2.390625 -89.375 L 6.21875 -95.359375 Z M 27.515625 -75.609375 L 28.234375 -20.34375 L 44.390625 -19.265625 L 44.625 -74.171875 Z M 27.515625 -75.609375 "/></g></g></g><g fill="#1e1e1e" fill-opacity="1"><g transform="translate(203.372897, 184.434531)"><g><path d="M 2.9375 -106.75 L 38.796875 -106.75 L 34.90625 -2.28125 L 7.359375 0 L 7.890625 -81.859375 L 2.671875 -84.265625 Z M 2.9375 -106.75 "/></g></g></g><g fill="#1e1e1e" fill-opacity="1"><g transform="translate(245.124948, 152.294544)"><g><path d="M 51.640625 -72.46875 L 72.34375 -73.34375 L 71.46875 24.703125 L 63.484375 31.6875 L 9.109375 30.5625 L 3 20.953125 L 3.734375 8.359375 L 6.484375 3.734375 L 26.6875 3.5 L 29.0625 11.71875 L 46.53125 10.359375 L 46.15625 -2 L 11.71875 -0.25 L 4.609375 -7.234375 L 2.5 -73.46875 L 23.703125 -73.21875 L 28.0625 -69.71875 L 28.8125 -22.703125 L 46.15625 -23.703125 L 47.03125 -67.609375 Z M 51.640625 -72.46875 "/></g></g></g><g fill="#1e1e1e" fill-opacity="1"><g transform="translate(155.672382, 350.685694)"><g><path d="M 8.015625 -51.328125 L 56.46875 -50.375 L 56.46875 -32.1875 L 7.171875 -32.65625 Z M 8.015625 -51.328125 "/></g></g></g><g fill="#1e1e1e" fill-opacity="1"><g transform="translate(137.166471, 155.364778)"><g><path d="M 9.046875 -57.890625 L 63.6875 -56.8125 L 63.6875 -36.296875 L 8.09375 -36.84375 Z M 9.046875 -57.890625 "/></g></g></g><g fill="#1e1e1e" fill-opacity="1"><g transform="translate(223.25788, 294.433312)"><g><path d="M 2.625 -95.46875 L 34.703125 -95.46875 L 31.21875 -2.03125 L 6.578125 0 L 7.0625 -73.21875 L 2.390625 -75.375 Z M 2.625 -95.46875 "/></g></g></g><g fill="#1e1e1e" fill-opacity="1"><g transform="translate(261.114791, 260.292271)"><g><path d="M 47.609375 -70.34375 L 67.359375 -71.640625 L 68.765625 21.9375 L 61.296875 28.765625 L 9.390625 28.953125 L 3.34375 19.9375 L 3.765625 7.890625 L 6.265625 3.4375 L 25.546875 2.71875 L 27.984375 10.53125 L 44.625 8.8125 L 43.984375 -2.953125 L 11.1875 -0.5 L 4.234375 -7.015625 L 0.703125 -70.171875 L 20.953125 -70.40625 L 25.1875 -67.171875 L 26.96875 -22.328125 L 43.484375 -23.671875 L 43.3125 -65.578125 Z M 47.609375 -70.34375 "/></g></g></g></svg>